<svg id="Layer_1" enable-background="new 0 0 128 128" height="512" viewBox="0 0 128 128" width="512" xmlns="http://www.w3.org/2000/svg"><path d="m97.251 62.994c-12.041 0-21.836-9.796-21.836-21.836v-.411c0-17.669-14.375-32.043-32.043-32.043s-32.043 14.374-32.043 32.043v78.482c0 2.355 1.916 4.272 4.272 4.272h101.003c2.356 0 4.272-1.916 4.272-4.272v-32.61c-.001-13.027-10.598-23.625-23.625-23.625z" fill="#e6e7e8"/><path d="m8.125 93.434v21.522c0 1.769 1.434 3.204 3.204 3.204h101.004c1.769 0 3.204-1.434 3.204-3.204v-21.522z" fill="#fa759e"/><path d="m12.898 93.434v16.099c0 1.18.956 2.136 2.136 2.136h93.594c1.18 0 2.136-.956 2.136-2.136v-16.099z" fill="#fff"/><path d="m70.076 36.887v-.411c0-17.108-13.868-30.976-30.975-30.976-17.108 0-30.976 13.868-30.976 30.975v23.315 33.644h107.411v-11.087c0-12.458-10.099-22.557-22.557-22.557-12.649 0-22.903-10.254-22.903-22.903z" fill="#fa759e"/><path d="m92.979 59.79c-12.649 0-22.903-10.254-22.903-22.903v-.411c0-17.108-13.868-30.976-30.975-30.976-17.108 0-30.976 13.868-30.976 30.975v3c0-17.107 13.868-30.975 30.976-30.975 17.107 0 30.975 13.868 30.975 30.975v.411c0 12.649 10.254 22.903 22.903 22.903 12.458 0 22.557 10.099 22.557 22.557v-3c0-12.457-10.099-22.556-22.557-22.556z" fill="#fff"/><g fill="#3a2c60"><path d="m55.446 110.669h-5.998c-.553 0-1 .448-1 1s.447 1 1 1h5.998c.553 0 1-.448 1-1s-.447-1-1-1z"/><path d="m92.979 58.79c-12.077 0-21.903-9.826-21.903-21.903v-.412c0-17.631-14.344-31.975-31.975-31.975s-31.976 14.344-31.976 31.975v56.959 21.522c0 2.318 1.886 4.204 4.204 4.204h101.003c2.318 0 4.204-1.886 4.204-4.204v-21.521-11.088c0-12.99-10.567-23.557-23.557-23.557zm-83.854-22.315c0-16.528 13.447-29.975 29.976-29.975s29.976 13.447 29.976 29.975v.412c0 13.18 10.723 23.903 23.903 23.903 11.887 0 21.557 9.67 21.557 21.557v10.088h-3.772-97.868-3.772zm105.411 78.482c0 1.215-.988 2.204-2.204 2.204h-101.003c-1.216 0-2.204-.989-2.204-2.204v-20.522h2.772v15.099c0 1.729 1.407 3.136 3.137 3.136h28.996c.553 0 1-.448 1-1s-.447-1-1-1h-28.996c-.627 0-1.137-.509-1.137-1.136v-15.099h6.656v10.95c0 .59.478 1.068 1.068 1.068h4.602c.59 0 1.068-.478 1.068-1.068v-10.95h1.631v10.95c0 .59.478 1.068 1.068 1.068h4.602c.59 0 1.068-.478 1.068-1.068v-10.95h1.631v10.95c0 .59.478 1.068 1.068 1.068h4.602c.59 0 1.068-.478 1.068-1.068v-10.95h10.247v10.95c0 .59.478 1.068 1.068 1.068h4.602c.59 0 1.068-.478 1.068-1.068v-10.95h1.631v10.95c0 .59.478 1.068 1.068 1.068h4.602c.59 0 1.068-.478 1.068-1.068v-10.95h10.247v10.95c0 .59.478 1.068 1.068 1.068h4.602c.59 0 1.068-.478 1.068-1.068v-10.95h1.632v10.95c0 .59.478 1.068 1.068 1.068h4.602c.59 0 1.068-.478 1.068-1.068v-10.95h1.631v10.95c0 .59.478 1.068 1.068 1.068h4.602c.59 0 1.068-.478 1.068-1.068v-10.95h6.656v15.099c0 .626-.51 1.136-1.136 1.136h-47.612c-.553 0-1 .448-1 1s.447 1 1 1h47.613c1.729 0 3.136-1.407 3.136-3.136v-15.099h2.772z"/></g></svg>